<?xml version="1.0" standalone="no"?>
<svg xmlns:xlink="http://www.w3.org/1999/xlink" id="wave" style="transform:rotate(180deg); transition: 0.3s" viewBox="0 0 1440 140" version="1.1" xmlns="http://www.w3.org/2000/svg"><defs><linearGradient id="sw-gradient-0" x1="0" x2="0" y1="1" y2="0"><stop stop-color="rgba(100, 116, 139, 1)" offset="0%"/><stop stop-color="rgba(203, 213, 225, 1)" offset="100%"/></linearGradient></defs><path style="transform:translate(0, 0px); opacity:1" fill="url(#sw-gradient-0)" d="M0,28L10.9,42C21.8,56,44,84,65,84C87.3,84,109,56,131,53.7C152.7,51,175,75,196,84C218.2,93,240,89,262,93.3C283.6,98,305,112,327,100.3C349.1,89,371,51,393,49C414.5,47,436,79,458,79.3C480,79,502,47,524,32.7C545.5,19,567,23,589,21C610.9,19,633,9,655,14C676.4,19,698,37,720,49C741.8,61,764,65,785,65.3C807.3,65,829,61,851,58.3C872.7,56,895,56,916,58.3C938.2,61,960,65,982,56C1003.6,47,1025,23,1047,32.7C1069.1,42,1091,84,1113,86.3C1134.5,89,1156,51,1178,39.7C1200,28,1222,42,1244,42C1265.5,42,1287,28,1309,30.3C1330.9,33,1353,51,1375,60.7C1396.4,70,1418,70,1440,74.7C1461.8,79,1484,89,1505,91C1527.3,93,1549,89,1560,86.3L1570.9,84L1570.9,140L1560,140C1549.1,140,1527,140,1505,140C1483.6,140,1462,140,1440,140C1418.2,140,1396,140,1375,140C1352.7,140,1331,140,1309,140C1287.3,140,1265,140,1244,140C1221.8,140,1200,140,1178,140C1156.4,140,1135,140,1113,140C1090.9,140,1069,140,1047,140C1025.5,140,1004,140,982,140C960,140,938,140,916,140C894.5,140,873,140,851,140C829.1,140,807,140,785,140C763.6,140,742,140,720,140C698.2,140,676,140,655,140C632.7,140,611,140,589,140C567.3,140,545,140,524,140C501.8,140,480,140,458,140C436.4,140,415,140,393,140C370.9,140,349,140,327,140C305.5,140,284,140,262,140C240,140,218,140,196,140C174.5,140,153,140,131,140C109.1,140,87,140,65,140C43.6,140,22,140,11,140L0,140Z"/></svg>