<?xml version="1.0" standalone="no"?>
<svg xmlns:xlink="http://www.w3.org/1999/xlink" id="wave" style="transform:rotate(180deg); transition: 0.3s" viewBox="0 0 1440 130" version="1.1" xmlns="http://www.w3.org/2000/svg"><defs><linearGradient id="sw-gradient-0" x1="0" x2="0" y1="1" y2="0"><stop stop-color="rgba(100, 116, 139, 1)" offset="0%"/><stop stop-color="rgba(203, 213, 225, 1)" offset="100%"/></linearGradient></defs><path style="transform:translate(0, 0px); opacity:1" fill="url(#sw-gradient-0)" d="M0,78L10,82.3C20,87,40,95,60,99.7C80,104,100,104,120,97.5C140,91,160,78,180,60.7C200,43,220,22,240,13C260,4,280,9,300,21.7C320,35,340,56,360,60.7C380,65,400,52,420,58.5C440,65,460,91,480,86.7C500,82,520,48,540,30.3C560,13,580,13,600,30.3C620,48,640,82,660,82.3C680,82,700,48,720,28.2C740,9,760,4,780,2.2C800,0,820,0,840,8.7C860,17,880,35,900,41.2C920,48,940,43,960,52C980,61,1000,82,1020,80.2C1040,78,1060,52,1080,49.8C1100,48,1120,69,1140,82.3C1160,95,1180,100,1200,91C1220,82,1240,61,1260,47.7C1280,35,1300,30,1320,41.2C1340,52,1360,78,1380,78C1400,78,1420,52,1430,39L1440,26L1440,130L1430,130C1420,130,1400,130,1380,130C1360,130,1340,130,1320,130C1300,130,1280,130,1260,130C1240,130,1220,130,1200,130C1180,130,1160,130,1140,130C1120,130,1100,130,1080,130C1060,130,1040,130,1020,130C1000,130,980,130,960,130C940,130,920,130,900,130C880,130,860,130,840,130C820,130,800,130,780,130C760,130,740,130,720,130C700,130,680,130,660,130C640,130,620,130,600,130C580,130,560,130,540,130C520,130,500,130,480,130C460,130,440,130,420,130C400,130,380,130,360,130C340,130,320,130,300,130C280,130,260,130,240,130C220,130,200,130,180,130C160,130,140,130,120,130C100,130,80,130,60,130C40,130,20,130,10,130L0,130Z"/></svg>